<?xml version="1.0" encoding="UTF-8" standalone="no"?>
<svg width="88px" height="50px" viewBox="0 0 88 50" version="1.1" xmlns="http://www.w3.org/2000/svg" xmlns:xlink="http://www.w3.org/1999/xlink">
    <!-- Generator: Sketch 46.1 (44463) - http://www.bohemiancoding.com/sketch -->
    <title>webpkr-white</title>
    <desc>Created with Sketch.</desc>
    <defs></defs>
    <g id="Page-1" stroke="none" stroke-width="1" fill="none" fill-rule="evenodd">
        <g id="webpkr-white" fill="#FFFFFF">
            <rect id="Path" fill-opacity="0.00999999978" x="0" y="0" width="87.5" height="50"></rect>
            <path d="M2.75,18.3606125 L5.57470961,18.3606125 L7.66024287,29.1050686 L8.18822598,29.1050686 L10.6961457,18.624604 L13.6528511,18.624604 L16.1607709,29.1050686 L16.688754,29.1050686 L18.7478881,18.3606125 L21.5989968,18.3606125 L18.8006864,31.5601901 L14.2336325,31.5601901 L12.1744984,22.5052798 L10.1153643,31.5601901 L5.54831045,31.5601901 L2.75,18.3606125 Z M33.4522175,29.1842661 L34.1913939,29.1050686 L34.2441922,31.2434002 C32.2378464,31.6481893 30.460321,31.8505808 28.9115628,31.8505808 C26.9580156,31.8505808 25.5544745,31.3138033 24.7008976,30.2402323 C23.8473206,29.1666613 23.4205385,27.4507334 23.4205385,25.092397 C23.4205385,20.4109234 25.3300583,18.0702218 29.1491552,18.0702218 C32.8450554,18.0702218 34.6929778,20.0853371 34.6929778,24.1156283 L34.5081837,26.1747624 L26.3244456,26.1747624 C26.3420451,27.2659329 26.5796352,28.0666993 27.0372228,28.5770855 C27.4948105,29.0874718 28.3483746,29.342661 29.5979409,29.342661 C30.8475071,29.342661 32.1322532,29.2898633 33.4522175,29.1842661 Z M31.8682682,23.9572334 C31.8682682,22.6548685 31.6614769,21.7441068 31.2478881,21.2249208 C30.8342992,20.7057348 30.1347286,20.4461457 29.1491552,20.4461457 C28.1635818,20.4461457 27.446412,20.7189343 26.9976241,21.2645195 C26.5488362,21.8101048 26.315646,22.7076671 26.2980465,23.9572334 L31.8682682,23.9572334 Z M43.6158923,18.0702218 C45.4286433,18.0702218 46.7353885,18.5762005 47.5361668,19.5881732 C48.3369452,20.6001459 48.7373284,22.3908706 48.7373284,24.9604013 C48.7373284,27.5299319 48.2621484,29.3206567 47.311774,30.3326294 C46.3613997,31.344602 44.6894699,31.8505808 42.2959345,31.8505808 C41.4687569,31.8505808 40.1576119,31.7713841 38.3624604,31.6129884 L37.4648891,31.5337909 L37.4648891,12.8695882 L40.3159979,12.8695882 L40.3159979,18.8621964 C41.5303651,18.3342107 42.6303189,18.0702218 43.6158923,18.0702218 Z M42.2959345,29.2898627 C43.7038965,29.2898627 44.6410572,28.9598766 45.1074446,28.2998944 C45.573832,27.6399122 45.8070222,26.5179593 45.8070222,24.9340021 C45.8070222,23.3500449 45.6090305,22.2368916 45.2130412,21.594509 C44.8170519,20.9521263 44.170279,20.6309398 43.2727033,20.6309398 C42.4279261,20.6309398 41.5831616,20.7629343 40.7383844,21.0269271 L40.3159979,21.1589229 L40.3159979,29.1842661 C41.2839718,29.2546642 41.943944,29.2898627 42.2959345,29.2898627 Z M51.8524287,37.5 L51.8524287,18.3606125 L53.4099789,18.3606125 L53.4099789,19.3637804 C54.7827418,18.5190032 56.230281,18.0966209 57.7526399,18.0966209 C59.2749988,18.0966209 60.4101511,18.6333984 61.1581309,19.7069694 C61.9061107,20.7805404 62.280095,22.527267 62.280095,24.9472017 C62.280095,27.3671364 61.8401135,29.1182628 60.9601373,30.2006336 C60.080161,31.2830044 58.6194224,31.8241816 56.5778775,31.8241816 C55.486707,31.8241816 54.4307513,31.7097864 53.4099789,31.4809926 L53.4099789,37.5 L51.8524287,37.5 Z M57.4226505,19.5221753 C56.8418662,19.5221753 56.2170924,19.6189712 55.5483105,19.812566 C54.8795285,20.0061608 54.3603503,20.2085523 53.9907603,20.4197466 L53.4099789,20.7101373 L53.4099789,30.1082365 C54.6067466,30.3194308 55.645103,30.4250264 56.5250792,30.4250264 C58.0386383,30.4250264 59.1033936,29.9982443 59.719377,29.1446674 C60.3353603,28.2910904 60.6433474,26.8831496 60.6433474,24.9208025 C60.6433474,22.9584555 60.3749587,21.5681139 59.8381732,20.749736 C59.3013877,19.9313581 58.4962215,19.5221753 57.4226505,19.5221753 Z M67.2167371,31.5601901 L65.6591869,31.5601901 L65.6591869,12.5 L67.2167371,12.5 L67.2167371,23.8516367 L69.4606653,23.7988384 L73.5261352,18.3606125 L75.3476769,18.3606125 L70.8334213,24.406019 L75.5588701,31.5601901 L73.7109293,31.5601901 L69.4870644,25.1979937 L67.2167371,25.250792 L67.2167371,31.5601901 Z M78.0667899,31.5601901 L78.0667899,18.3606125 L79.62434,18.3606125 L79.62434,20.2613516 C80.2755224,19.803764 81.071889,19.3637825 82.0134636,18.9413939 C82.9550381,18.5190053 83.8218017,18.2374171 84.6137804,18.0966209 L84.6137804,19.6805702 C83.8570008,19.8389659 83.0650341,20.0809558 82.2378564,20.406547 C81.4106787,20.7321382 80.7683057,21.0181262 80.3107181,21.2645195 L79.62434,21.6605069 L79.62434,31.5601901 L78.0667899,31.5601901 Z" id="white"></path>
        </g>
    </g>
</svg>